<svg id="visual" viewBox="0 0 2000 700" width="2000" height="700" xmlns="http://www.w3.org/2000/svg" xmlns:xlink="http://www.w3.org/1999/xlink" version="1.1"><path d="M0 57L37 62.8C74 68.7 148 80.3 222 81.5C296 82.7 370 73.3 444.2 71C518.3 68.7 592.7 73.3 666.8 71C741 68.7 815 59.3 889 55.8C963 52.3 1037 54.7 1111 57C1185 59.3 1259 61.7 1333.2 60.5C1407.3 59.3 1481.7 54.7 1555.8 52.3C1630 50 1704 50 1778 53.5C1852 57 1926 64 1963 67.5L2000 71L2000 0L1963 0C1926 0 1852 0 1778 0C1704 0 1630 0 1555.8 0C1481.7 0 1407.3 0 1333.2 0C1259 0 1185 0 1111 0C1037 0 963 0 889 0C815 0 741 0 666.8 0C592.7 0 518.3 0 444.2 0C370 0 296 0 222 0C148 0 74 0 37 0L0 0Z" fill="#240f68"></path><path d="M0 113L37 125.8C74 138.7 148 164.3 222 171.3C296 178.3 370 166.7 444.2 162C518.3 157.3 592.7 159.7 666.8 153.8C741 148 815 134 889 131.7C963 129.3 1037 138.7 1111 145.7C1185 152.7 1259 157.3 1333.2 156.2C1407.3 155 1481.7 148 1555.8 144.5C1630 141 1704 141 1778 142.2C1852 143.3 1926 145.7 1963 146.8L2000 148L2000 69L1963 65.5C1926 62 1852 55 1778 51.5C1704 48 1630 48 1555.8 50.3C1481.7 52.7 1407.3 57.3 1333.2 58.5C1259 59.7 1185 57.3 1111 55C1037 52.7 963 50.3 889 53.8C815 57.3 741 66.7 666.8 69C592.7 71.3 518.3 66.7 444.2 69C370 71.3 296 80.7 222 79.5C148 78.3 74 66.7 37 60.8L0 55Z" fill="#0a1149"></path><path d="M0 176L37 184.2C74 192.3 148 208.7 222 215.7C296 222.7 370 220.3 444.2 219.2C518.3 218 592.7 218 666.8 212.2C741 206.3 815 194.7 889 193.5C963 192.3 1037 201.7 1111 207.5C1185 213.3 1259 215.7 1333.2 212.2C1407.3 208.7 1481.7 199.3 1555.8 194.7C1630 190 1704 190 1778 191.2C1852 192.3 1926 194.7 1963 195.8L2000 197L2000 146L1963 144.8C1926 143.7 1852 141.3 1778 140.2C1704 139 1630 139 1555.8 142.5C1481.7 146 1407.3 153 1333.2 154.2C1259 155.3 1185 150.7 1111 143.7C1037 136.7 963 127.3 889 129.7C815 132 741 146 666.8 151.8C592.7 157.7 518.3 155.3 444.2 160C370 164.7 296 176.3 222 169.3C148 162.3 74 136.7 37 123.8L0 111Z" fill="#060628"></path><path d="M0 330L37 345.2C74 360.3 148 390.7 222 398.8C296 407 370 393 444.2 386C518.3 379 592.7 379 666.8 370.8C741 362.7 815 346.3 889 347.5C963 348.7 1037 367.3 1111 383.7C1185 400 1259 414 1333.2 405.8C1407.3 397.7 1481.7 367.3 1555.8 363.8C1630 360.3 1704 383.7 1778 388.3C1852 393 1926 379 1963 372L2000 365L2000 195L1963 193.8C1926 192.7 1852 190.3 1778 189.2C1704 188 1630 188 1555.8 192.7C1481.7 197.3 1407.3 206.7 1333.2 210.2C1259 213.7 1185 211.3 1111 205.5C1037 199.7 963 190.3 889 191.5C815 192.7 741 204.3 666.8 210.2C592.7 216 518.3 216 444.2 217.2C370 218.3 296 220.7 222 213.7C148 206.7 74 190.3 37 182.2L0 174Z" fill="#00001b"></path><path d="M0 512L37 519C74 526 148 540 222 549.3C296 558.7 370 563.3 444.2 558.7C518.3 554 592.7 540 666.8 535.3C741 530.7 815 535.3 889 535.3C963 535.3 1037 530.7 1111 535.3C1185 540 1259 554 1333.2 549.3C1407.3 544.7 1481.7 521.3 1555.8 519C1630 516.7 1704 535.3 1778 541.2C1852 547 1926 540 1963 536.5L2000 533L2000 363L1963 370C1926 377 1852 391 1778 386.3C1704 381.7 1630 358.3 1555.8 361.8C1481.7 365.3 1407.3 395.7 1333.2 403.8C1259 412 1185 398 1111 381.7C1037 365.3 963 346.7 889 345.5C815 344.3 741 360.7 666.8 368.8C592.7 377 518.3 377 444.2 384C370 391 296 405 222 396.8C148 388.7 74 358.3 37 343.2L0 328Z" fill="#060628"></path><path d="M0 554L37 561C74 568 148 582 222 592.5C296 603 370 610 444.2 610C518.3 610 592.7 603 666.8 598.3C741 593.7 815 591.3 889 590.2C963 589 1037 589 1111 592.5C1185 596 1259 603 1333.2 600.7C1407.3 598.3 1481.7 586.7 1555.8 587.8C1630 589 1704 603 1778 605.3C1852 607.7 1926 598.3 1963 593.7L2000 589L2000 531L1963 534.5C1926 538 1852 545 1778 539.2C1704 533.3 1630 514.7 1555.8 517C1481.7 519.3 1407.3 542.7 1333.2 547.3C1259 552 1185 538 1111 533.3C1037 528.7 963 533.3 889 533.3C815 533.3 741 528.7 666.8 533.3C592.7 538 518.3 552 444.2 556.7C370 561.3 296 556.7 222 547.3C148 538 74 524 37 517L0 510Z" fill="#0a1149"></path><path d="M0 701L37 701C74 701 148 701 222 701C296 701 370 701 444.2 701C518.3 701 592.7 701 666.8 701C741 701 815 701 889 701C963 701 1037 701 1111 701C1185 701 1259 701 1333.2 701C1407.3 701 1481.7 701 1555.8 701C1630 701 1704 701 1778 701C1852 701 1926 701 1963 701L2000 701L2000 587L1963 591.7C1926 596.3 1852 605.7 1778 603.3C1704 601 1630 587 1555.8 585.8C1481.7 584.7 1407.3 596.3 1333.2 598.7C1259 601 1185 594 1111 590.5C1037 587 963 587 889 588.2C815 589.3 741 591.7 666.8 596.3C592.7 601 518.3 608 444.2 608C370 608 296 601 222 590.5C148 580 74 566 37 559L0 552Z" fill="#240f68"></path></svg>